<?xml version="1.0" encoding="utf-8"?>
    <svg width="40" version="1.1" xmlns="http://www.w3.org/2000/svg" xmlns:xlink="http://www.w3.org/1999/xlink" x="0px" y="0px" viewBox="0 0 1000 1000" enable-background="new 0 0 1000 1000" xml:space="preserve">
    <g><g transform="translate(0.000000,511.000000) scale(0.100000,-0.100000)"><path d="M4647.7,4994.7c-1160.5-81.5-2278.1-592.1-3112.6-1424.4c-1913.4-1913.5-1913.4-5019.6,0-6933c776.5-776.5,1754.7-1252.8,2887.4-1405.1c261.7-34.3,950.3-30,1222.7,10.7c579.2,83.7,1079,238.1,1572.4,489.1c1310.7,665,2243.8,1868.4,2569.9,3309.9c139.4,622.1,150.2,1353.6,27.9,1995c-201.6,1059.7-789.4,2074.3-1606.7,2773.6c-828,707.9-1808.3,1109-2891.6,1184.1C5003.7,5016.2,4984.5,5016.2,4647.7,4994.7z M5606.5,4147.4C7213.2,3905,8532.5,2731.6,8948.6,1172.1c98.7-375.4,135.1-647.8,135.1-1057.5c0-414-23.6-615.6-115.8-993.2C8650.4-2172.1,7732.3-3212.5,6471-3714.5c-218.8-87.9-671.4-201.7-933.1-238.1c-261.7-36.5-810.8-36.5-1072.6,0C3131.1-3770.3,1959.8-2940.1,1357-1747.4c-205.9,407.6-321.8,767.9-401.1,1239.9c-45,268.1-49.3,866.6-10.7,1147.6C1155.4,2146,2140,3383.7,3560.1,3932.9c246.7,94.4,643.5,193.1,907.4,223.1c111.6,12.9,236,27.9,276.7,32.2C4879.3,4203.2,5394.2,4179.6,5606.5,4147.4z"/><path d="M3328.4,2547.1c-467.6-92.2-804.4-572.7-727.2-1046.8c72.9-456.9,446.2-774.4,909.5-774.4c465.5,0,832.3,311,911.7,774.4c66.5,379.7-148,789.4-497.7,961C3718.8,2562.2,3538.6,2587.9,3328.4,2547.1z"/><path d="M6213.6,2540.7c-366.8-92.2-637.1-384-701.5-759.4c-66.5-388.3,150.2-795.8,517-976c135.2-64.4,154.5-68.7,390.4-68.7c242.4,0,251,2.1,407.6,79.4c311,154.4,493.4,429,508.4,770.1c15,306.7-72.9,527.7-298.2,737.9C6818.5,2530,6503.2,2611.5,6213.6,2540.7z"/><path d="M4626.2-906.5c-701.5-72.9-1385.8-364.7-1945.6-828c-323.9-268.1-405.4-396.9-373.3-574.9c19.3-103,150.2-236,259.6-266c139.4-36.4,227.4,0,422.6,182.3c392.6,369,817.3,600.6,1345,733.6c210.2,53.6,261.7,57.9,667.1,57.9c405.4,0,456.9-4.3,667.1-57.9c514.8-130.8,941.7-360.4,1317.1-707.9c233.8-216.7,323.9-246.7,495.5-169.5c118,53.6,186.6,152.3,197.4,291.7c12.9,148-23.6,210.2-225.3,394.7C6681.2-1144.6,5649.4-799.2,4626.2-906.5z"/></g></g>
</svg>