<svg id="Layer_1" data-name="Layer 1" xmlns="http://www.w3.org/2000/svg" viewBox="0 0 100 100"><defs><style>.cls-1{fill:#4dc8f1;}</style></defs><path class="cls-1" d="M50,1A49,49,0,1,0,99,50,49,49,0,0,0,50,1ZM70.72,38.77V40.2c0,15.31-10.82,32.87-30.63,32.87a29,29,0,0,1-16.53-5.31,12.16,12.16,0,0,0,2.65.21,20.85,20.85,0,0,0,13.27-4.9c-4.69,0-8.57-3.27-10-8a6.75,6.75,0,0,0,2,.21,12.31,12.31,0,0,0,2.86-.41A11.71,11.71,0,0,1,25.8,43.47v-.21a9.82,9.82,0,0,0,4.9,1.43A11.6,11.6,0,0,1,26,35.1a11.13,11.13,0,0,1,1.43-5.93,29.85,29.85,0,0,0,22.25,12,11.89,11.89,0,0,1-.2-2.65c0-6.54,4.9-11.64,10.82-11.64a10.46,10.46,0,0,1,7.76,3.67A23.69,23.69,0,0,0,75,27.75a11.4,11.4,0,0,1-4.7,6.33,16.54,16.54,0,0,0,6.13-1.84A24.38,24.38,0,0,1,70.72,38.77Z"/></svg>