<?xml version="1.0" encoding="iso-8859-1"?>
<!-- Generator: Adobe Illustrator 18.1.1, SVG Export Plug-In . SVG Version: 6.00 Build 0)  -->
<svg fill="#20273e" width="20" version="1.1" id="Capa_1" xmlns="http://www.w3.org/2000/svg" xmlns:xlink="http://www.w3.org/1999/xlink" x="0px" y="0px"
	 viewBox="0 0 510.018 510.018" style="enable-background:new 0 0 510.018 510.018;" xml:space="preserve">
<g>
	<g>
		<path d="M186,29.084l-110,110H21c-12,0-21,10-21,22v188c0,12,9,22,21,22h55l110,110c4,4,9,6,15,6
			c13,0,21-11,21-22v-421C222,27.084,200,15.084,186,29.084z M180,414.084l-80-80c-4-4-9-6-15-6H43v-146h42c6,0,11-2,15-6l80-80
			V414.084z"/>
		<path d="M294,162.084c-8-9-21-10-30-2s-10,21-2,30c2,3,58,66,0,130c-13,14-1,35,16,35c6,0,12-2,16-7
			C360,274.084,323,194.084,294,162.084z"/>
		<path d="M361,102.084c-8-9-21-9-30-1s-9,21-1,30c5,5,110,125,0,248c-13,14-1,36,16,36c6,0,11-3,15-8
			C496,256.084,362,104.084,361,102.084z"/>
		<path d="M498,180.084c-22-72-64-120-66-122c-8-9-21-10-30-2s-10,21-2,30c0,0,38,43,57,106
			c25,83,6,161-57,231c-13,14-1,36,16,36c6,0,12-2,16-7C523,350.084,518,248.084,498,180.084z"/>
	</g>
</g>
<g>
</g>
<g>
</g>
<g>
</g>
<g>
</g>
<g>
</g>
<g>
</g>
<g>
</g>
<g>
</g>
<g>
</g>
<g>
</g>
<g>
</g>
<g>
</g>
<g>
</g>
<g>
</g>
<g>
</g>
</svg>
